# xmcd
#
# Track frame offsets:
#	150
#	10804
#	69471
#	81294
#	97000
#	125073
#	149241
#	190262
#	215999
#	231837
#	247627
#
# Disc length: 3596 seconds
#
# Revision: 0
# Processed by: cddbd v1.5.2PL0 Copyright (c) Steve Scherf et al.
# Submitted via: EZCDAudioConverter 1.3.4.1
#
DISCID=a40e0a0b
DTITLE=V/A - Deutsche Elektronische Musik 2/2
DYEAR=1900
DGENRE=
TTITLE0=Cluster - Heisse Lippen
TTITLE1=Ibliss - High Life
TTITLE2=Dieter Moebius - Hasenheide
TTITLE3=Amon Düül II - Fly United
TTITLE4=Popol Vuh - Aguirre 1
TTITLE5=Ash Ra Tempel - Daydream
TTITLE6=Tangerine Dream - No Man's Land
TTITLE7=Amon Düül II - Wie Der Wind Am Ende Einer Strasse
TTITLE8=Roedelius - Geradewohl
TTITLE9=Can - I Want More
TTITLE10=Deuter - Soham
EXTD=
EXTT0=
EXTT1=
EXTT2=
EXTT3=
EXTT4=
EXTT5=
EXTT6=
EXTT7=
EXTT8=
EXTT9=
EXTT10=
PLAYORDER=
